<svg width="16" height="22" viewBox="0 0 16 22" fill="none" xmlns="http://www.w3.org/2000/svg">
<style>
    path {
      fill: #fff;
      stroke: #fff;
      stroke-width: 0.1px;
    }
  </style>
<path d="M15.275 5.97502L10.025 0.72502C9.959 0.651739 9.87788 0.593666 9.78723 0.554818C9.69658 0.51597 9.59858 0.497273 9.5 0.50002H2C1.60254 0.501207 1.2217 0.659624 0.940651 0.940671C0.659604 1.22172 0.501187 1.60256 0.5 2.00002V20C0.501187 20.3975 0.659604 20.7783 0.940651 21.0594C1.2217 21.3404 1.60254 21.4988 2 21.5H14C14.3975 21.4988 14.7783 21.3404 15.0593 21.0594C15.3404 20.7783 15.4988 20.3975 15.5 20V6.50002C15.5027 6.40144 15.484 6.30344 15.4452 6.21279C15.4064 6.12214 15.3483 6.04102 15.275 5.97502ZM9.5 2.30002L13.7 6.50002H9.5V2.30002ZM14 20H2V2.00002H8V6.50002C8.00119 6.89748 8.1596 7.27832 8.44065 7.55937C8.7217 7.84042 9.10254 7.99883 9.5 8.00002H14V20Z" fill="black"/>
</svg>
