<svg width="18" height="18" viewBox="0 0 18 18" fill="none" xmlns="http://www.w3.org/2000/svg">
<style>
    path {
      fill: #fff;
      stroke: #fff;
      stroke-width: 0.1px;
      transition: 0.5s;
    }
  </style>
<path d="M16.2844 2.78437L2.78437 16.2844C2.64102 16.423 2.44941 16.5005 2.25 16.5005C2.05059 16.5005 1.85898 16.423 1.71562 16.2844C1.57479 16.1422 1.49578 15.9501 1.49578 15.75C1.49578 15.5499 1.57479 15.3578 1.71562 15.2156L15.2156 1.71562C15.3613 1.59603 15.5463 1.53491 15.7346 1.54415C15.9229 1.5534 16.101 1.63235 16.2343 1.76566C16.3676 1.89896 16.4466 2.07707 16.4558 2.26536C16.4651 2.45365 16.404 2.63865 16.2844 2.78437ZM1.73437 6.51562C1.10348 5.87993 0.749451 5.02062 0.749451 4.125C0.749451 3.22938 1.10348 2.37007 1.73437 1.73437C2.37007 1.10348 3.22938 0.749451 4.125 0.749451C5.02062 0.749451 5.87993 1.10348 6.51562 1.73437C7.1027 2.37761 7.41922 3.22241 7.39936 4.09305C7.3795 4.9637 7.02478 5.79318 6.40898 6.40898C5.79318 7.02478 4.9637 7.3795 4.09305 7.39936C3.22241 7.41923 2.37761 7.1027 1.73437 6.51562ZM2.25 4.125C2.24948 4.37107 2.29815 4.61476 2.39314 4.84177C2.48812 5.06877 2.62751 5.2745 2.80312 5.44687C2.97646 5.62092 3.18246 5.75902 3.4093 5.85325C3.63614 5.94748 3.87936 5.99599 4.125 5.99599C4.37063 5.99599 4.61385 5.94748 4.84069 5.85325C5.06754 5.75902 5.27354 5.62092 5.44687 5.44687C5.62205 5.27417 5.76115 5.06838 5.85609 4.84145C5.95104 4.61452 5.99993 4.37099 5.99993 4.125C5.99993 3.87901 5.95104 3.63547 5.85609 3.40854C5.76115 3.18162 5.62205 2.97582 5.44687 2.80312C5.27417 2.62795 5.06838 2.48885 4.84145 2.3939C4.61452 2.29896 4.37099 2.25007 4.125 2.25007C3.87901 2.25007 3.63547 2.29896 3.40854 2.3939C3.18162 2.48885 2.97582 2.62795 2.80312 2.80312C2.62751 2.9755 2.48812 3.18123 2.39314 3.40823C2.29815 3.63523 2.24948 3.87893 2.25 4.125ZM17.25 13.875C17.2486 14.4294 17.1107 14.975 16.8484 15.4634C16.5861 15.9519 16.2075 16.3682 15.7461 16.6755C15.2847 16.9829 14.7546 17.1719 14.2028 17.2257C13.651 17.2796 13.0945 17.1967 12.5823 16.9843C12.0702 16.772 11.6182 16.4367 11.2665 16.0082C10.9147 15.5797 10.6739 15.0711 10.5653 14.5274C10.4568 13.9837 10.4839 13.4217 10.6441 12.8909C10.8044 12.3602 11.093 11.8771 11.4844 11.4844C12.1201 10.8535 12.9794 10.4994 13.875 10.4994C14.7706 10.4994 15.6299 10.8535 16.2656 11.4844C16.5792 11.7983 16.8276 12.1711 16.9965 12.5814C17.1654 12.9917 17.2516 13.4313 17.25 13.875ZM15.75 13.875C15.7505 13.6289 15.7018 13.3852 15.6069 13.1582C15.5119 12.9312 15.3725 12.7255 15.1969 12.5531C15.0242 12.3779 14.8184 12.2388 14.5915 12.1439C14.3645 12.049 14.121 12.0001 13.875 12.0001C13.629 12.0001 13.3855 12.049 13.1585 12.1439C12.9316 12.2388 12.7258 12.3779 12.5531 12.5531C12.3391 12.7711 12.1819 13.0383 12.0954 13.3312C12.0088 13.6241 11.9954 13.9338 12.0565 14.2331C12.1175 14.5323 12.2511 14.812 12.4456 15.0476C12.64 15.2832 12.8893 15.4674 13.1716 15.5841C13.4538 15.7009 13.7604 15.7465 14.0644 15.717C14.3685 15.6875 14.6606 15.5839 14.9152 15.4151C15.1698 15.2464 15.379 15.0177 15.5246 14.7491C15.6702 14.4806 15.7476 14.1804 15.75 13.875Z" fill="black"/>
</svg>
