<svg width="19" height="16" viewBox="0 0 19 16" fill="none" xmlns="http://www.w3.org/2000/svg">
<style>
    path {
      fill: #fff;
      stroke: #fff;
      stroke-width: 0.1px;
    }
  </style>
<path d="M8.38801 11.864C8.38801 10.976 8.14801 10.208 7.65601 9.58399C6.91201 8.64799 5.46001 8.52799 4.62001 8.71999C4.27201 6.73999 5.95201 4.21999 8.12401 3.13999L6.45601 0.799988C3.18001 2.35999 -0.0479888 5.93599 0.504011 10.46C0.852011 13.316 2.50801 15.2 4.84801 15.2C5.86801 15.2 6.72001 14.9 7.39201 14.3C8.06401 13.7 8.38801 12.884 8.38801 11.864ZM18.048 11.864C18.048 10.976 17.808 10.208 17.316 9.58399C16.56 8.64799 15.12 8.52799 14.28 8.71999C13.932 6.73999 15.612 4.21999 17.784 3.13999L16.116 0.799988C12.84 2.35999 9.62401 5.93599 10.176 10.46C10.524 13.316 12.168 15.2 14.508 15.2C15.528 15.2 16.38 14.9 17.052 14.3C17.724 13.7 18.048 12.884 18.048 11.864Z" fill="black"/>
</svg>
