<svg width="430" height="430" viewBox="0 0 430 430" fill="none" xmlns="http://www.w3.org/2000/svg">
<g clip-path="url(#clip0_373_214)">
<path d="M0 30C0 13.4314 13.4315 0 30 0H400C416.569 0 430 13.4315 430 30V430H0V30Z" fill="#F2D27A"/>
<g clip-path="url(#clip1_373_214)">
<path d="M420.211 372.57L418.764 384.095L415.172 412.722H343.007C343.571 406.306 344.341 397.071 345.164 387.101C345.245 386.105 345.33 385.104 345.411 384.095C347.475 359.035 349.733 330.676 349.733 330.676L359.221 332.443L377.628 335.866L385.128 337.26L405.214 341C415.228 342.861 422.117 357.361 420.211 372.57V372.57Z" fill="#F2F2F2"/>
<path d="M365.625 284.301L374.499 299.83L357.443 311.918L350.167 292.83L365.625 284.301Z" fill="#FFB6B6"/>
<path d="M354.327 298.993C366.469 298.993 376.312 289.15 376.312 277.008C376.312 264.866 366.469 255.023 354.327 255.023C342.185 255.023 332.342 264.866 332.342 277.008C332.342 289.15 342.185 298.993 354.327 298.993Z" fill="#FFB6B6"/>
<path d="M352.749 281.923C351.003 279.266 351.688 277.876 350.227 276.9C350.227 276.9 349.639 276.507 345.43 276.283C344.487 269.501 343.311 268.678 343.311 268.678C341.955 267.73 339.943 268.038 338.691 268.618C336.044 269.844 336.351 272.493 334.568 273C332.106 273.7 327.626 269.753 327.185 265.234C326.825 261.548 329.199 257.968 330.141 258.157C331.075 258.345 333.311 255.49 334.519 255.534C335.343 255.565 338.712 254.1 339.618 254.215C340.608 254.34 343.871 256.043 344.007 255.654C344.952 252.95 344.674 252.2 345.476 251.427C346.897 250.056 349.221 251.01 352.867 251.523C360.369 252.577 361.679 250.103 365.524 251.78C367.466 252.627 369.091 254.911 372.262 259.445C376.696 265.786 378.914 268.956 378.928 272.653C378.942 276.424 377.116 276.185 376.314 281.768C375.421 287.982 377.318 290.824 375.246 292.842C373.644 294.403 370.388 294.773 368.678 293.404C365.749 291.059 369.582 285.402 366.341 281.268C364.351 278.731 360.35 277.602 358.518 278.856C356.445 280.274 357.587 284.437 356.13 284.831C354.882 285.169 353.053 282.386 352.749 281.923L352.749 281.923Z" fill="#2F2E41"/>
<path d="M403.961 368.511C403.348 378.996 400.912 382.306 400.059 394.689C399.873 397.407 399.761 400.563 399.761 404.326C399.761 405.285 399.766 406.213 399.766 407.119C399.766 409.049 399.729 410.872 399.505 412.722C399.335 414.198 399.042 415.685 398.556 417.252H351.206C351.201 417.242 351.201 417.231 351.195 417.22C350.918 416.016 350.742 414.864 350.609 413.761C350.566 413.409 350.529 413.063 350.497 412.722C350.455 412.322 350.417 411.927 350.38 411.538C350.236 409.987 350.092 408.521 349.751 407.119C349.293 405.184 348.461 403.361 346.755 401.602C346.057 400.883 345.359 400.323 344.676 399.833C344.543 399.742 344.415 399.651 344.282 399.561C342.395 398.265 340.609 397.333 339.063 394.689C339.037 394.651 339.015 394.609 338.994 394.572C338.728 394.108 338.035 392.892 337.533 391.272C337.006 389.588 336.686 387.471 337.262 385.307C338.632 380.179 343.706 379.668 347.853 374.486C348.301 373.927 348.744 373.308 349.165 372.621C351.041 369.572 351.547 366.885 352.144 363.692C352.24 363.175 352.325 362.663 352.395 362.168C352.448 361.795 352.496 361.427 352.534 361.064C352.864 358.021 352.704 355.398 352.315 353.053C351.046 345.372 347.304 340.617 349.948 333.725C350.78 331.561 351.958 329.935 353.146 328.544C355.662 325.596 358.248 323.682 357.8 319.876C357.347 316.038 354.436 315.511 354.111 312.158C353.946 310.463 354.5 308.677 355.54 306.923V306.918C358.866 301.273 367.171 296.076 372.448 296.241C373.423 296.268 374.287 296.486 375.006 296.907C377.613 298.443 376.526 301.795 380.518 306.497C383.487 309.988 386.845 311.385 388.119 312.046C393.167 314.679 397.272 322.446 400.059 332.376C400.081 332.451 400.102 332.525 400.123 332.605C401.845 338.826 403.061 345.889 403.663 353.053C403.919 356.086 404.068 359.135 404.1 362.152C404.127 364.561 404.073 366.651 403.961 368.511Z" fill="#8CA32B"/>
<path d="M368.504 404.433L367.538 407.12L366.931 408.804L365.523 412.722L363.893 417.253H353.408L355.167 412.722L355.982 410.611L357.336 407.12L359.607 401.256L368.504 404.433Z" fill="#FFB6B6"/>
<path d="M400.225 331.459C400.198 331.806 400.161 332.19 400.123 332.606C399.708 336.838 398.727 344.412 397.293 353.053C396.536 357.61 395.651 362.467 394.654 367.291C392.512 377.701 389.847 387.951 386.835 394.689C386.296 395.904 385.742 397.002 385.177 397.973C384.745 398.714 384.292 399.444 383.818 400.163C382.282 402.525 380.561 404.764 378.775 406.853C378.706 406.944 378.626 407.029 378.546 407.12C378.258 407.461 377.959 407.797 377.661 408.132C376.2 409.779 374.708 411.314 373.263 412.722C371.505 414.438 369.809 415.957 368.29 417.253H351.265L351.195 417.221L348.744 416.133C348.744 416.133 349.442 415.312 350.609 413.761C350.849 413.447 351.105 413.1 351.382 412.722C351.723 412.258 352.091 411.746 352.485 411.192C353.306 410.03 354.239 408.665 355.241 407.12C357.182 404.129 359.393 400.451 361.627 396.192C361.883 395.696 362.144 395.195 362.405 394.689C362.411 394.673 362.421 394.657 362.427 394.641C362.869 393.777 363.306 392.887 363.743 391.981C367.448 384.273 368.509 377.877 368.813 375.803C369.239 372.872 369.83 368.772 369.671 364.263C369.564 361.289 369.132 358.144 368.104 355.02V355.015C367.89 354.359 367.65 353.703 367.379 353.053C366.894 351.886 366.318 350.734 365.635 349.599C362.624 344.599 360.177 344.391 358.232 338.943C357.656 337.328 356.35 333.682 356.75 329.834V329.829C356.798 329.354 356.878 328.874 356.984 328.394V328.389C357.011 328.256 357.048 328.117 357.086 327.984C357.389 326.806 357.891 325.639 358.653 324.53C360.14 322.377 362.171 321.097 363.988 320.335L363.994 320.33C366.094 319.456 367.906 319.269 368.258 319.237C376.046 318.544 382.085 325.09 385.385 328.666C386.659 330.047 387.826 331.204 388.892 332.147C397.192 339.557 399.468 334.823 400.059 332.376C400.15 331.998 400.198 331.673 400.225 331.459V331.459Z" fill="#8CA32B"/>
<path d="M400.251 331.182C400.251 331.209 400.246 331.299 400.225 331.449C400.235 331.369 400.241 331.289 400.246 331.214C400.246 331.198 400.246 331.187 400.251 331.182Z" fill="#8CA32B"/>
<path d="M117.301 285.323L135.31 277.744L143.034 293.579L124.11 301.303L117.301 285.323Z" fill="#FFB6B6"/>
<path opacity="0.1" d="M117.301 285.323L135.31 277.744L143.034 293.579L124.11 301.303L117.301 285.323Z" fill="black"/>
<path d="M119.862 279.289L137.627 299.758C137.627 299.758 125.268 338.764 112.91 342.24C100.552 345.716 77.7657 362.709 77.7657 362.709L49.1868 344.171L63.09 323.702C63.09 323.702 96.6895 277.744 105.572 277.744C114.455 277.744 119.862 279.289 119.862 279.289V279.289Z" fill="#8CA32B"/>
<path d="M95.8593 412.722H54.5048L51.8903 409.227L41.2156 394.957L38.7594 391.674C38.7594 391.674 29.4906 374.681 31.4216 359.233C33.3526 343.785 53.4351 340.309 53.4351 340.309H54.2615L78.8471 361.913L77.3795 382.019L85.1654 394.957L95.8593 412.722Z" fill="#2F2E41"/>
<path d="M62.9744 412.721H51.8904V396.308L62.9744 412.721Z" fill="#2F2E41"/>
<path d="M302.041 387.804L300.662 394.957L297.241 412.722H228.501C229.037 408.74 229.771 403.009 230.555 396.822C230.632 396.204 230.714 395.582 230.791 394.957C232.757 379.404 234.908 361.805 234.908 361.805L243.945 362.902L261.478 365.026L268.623 365.891L287.755 368.212C297.295 369.367 303.856 378.365 302.041 387.804H302.041Z" fill="#F2F2F2"/>
<path d="M385.995 412.722H348.711C349.279 412.053 349.599 411.667 349.599 411.667L360.776 409.821L383.805 406.021C383.805 406.021 384.855 408.736 385.995 412.722V412.722Z" fill="#2F2E41"/>
<path d="M241.173 293.048L257.387 315.978L229.104 316.823L226.068 295.274L241.173 293.048Z" fill="#A0616A"/>
<path opacity="0.1" d="M241.173 293.048L257.387 315.978L229.104 316.823L226.068 295.274L241.173 293.048Z" fill="black"/>
<path d="M161.212 340.558C159.131 334.556 154.348 330.765 150.529 332.09C146.71 333.414 145.301 339.353 147.383 345.356C148.182 347.766 149.546 349.949 151.362 351.723L160.498 377.041L172.287 372.5L162.029 348.024C162.357 345.505 162.076 342.945 161.212 340.558Z" fill="#A0616A"/>
<path d="M270.966 328.873L270.944 352.242L268.77 360.874L264.297 378.628L261.042 394.956L258.616 407.122L257.751 411.466C257.098 411.903 256.45 412.32 255.801 412.722H199.311C196.102 410.794 194.306 409.296 194.306 409.296C194.306 409.296 195.194 408.462 196.21 407.122C197.925 404.858 199.999 401.151 198.728 397.609C198.462 396.868 198.392 395.964 198.473 394.956C198.991 388.306 205.965 377.06 205.965 377.06L204.521 360.368L203.888 353.053L208.353 317.388L222.909 308.926L225.422 308.683L250.228 307.343L260.481 307.934L260.948 308.061L270.966 328.873V328.873Z" fill="#CCCCCC"/>
<path d="M272.068 412.722H259.709L259.165 407.122L259.153 407.01L262.652 406.771L271.755 406.149L271.913 409.501L272.037 412.073L272.068 412.722Z" fill="#FFB6B6"/>
<path d="M275.11 334.524L280.301 364.984L276.065 394.957L275.404 399.622L274.238 407.86L273.879 410.393L273.891 410.667L273.979 412.722H259.304L258.763 407.122L258.717 406.62L257.612 395.15L257.593 394.957L255.249 370.634L259.844 353.054L260.184 351.76V351.756L262.184 321.656L260.635 307.976L260.62 307.849C260.651 307.868 260.678 307.888 260.709 307.907C260.79 307.957 260.871 308.007 260.948 308.061C269.97 313.785 275.346 323.826 275.11 334.524Z" fill="#CCCCCC"/>
<path d="M213.611 323.224L207.967 317.387C207.967 317.387 195.886 322.834 195.284 325.855C194.681 328.877 173.351 373.256 173.351 373.256L164.071 348.47L151.991 356.536C151.991 356.536 161.684 395.017 170.749 396.823C179.813 398.63 210.195 351.277 210.195 351.277L213.61 323.224H213.611Z" fill="#CCCCCC"/>
<path d="M429.435 394.689H-10.0472C-16.2677 394.689 -21.3264 399.753 -21.3264 405.973C-21.3264 412.194 -16.2677 417.252 -10.0472 417.252H429.435C435.656 417.252 440.72 412.194 440.72 405.973C440.72 399.752 435.656 394.689 429.435 394.689Z" fill="#E6E6E6"/>
<path d="M268.394 360.304L267.54 400.176C267.457 404.036 264.304 407.122 260.444 407.122H187.096C183.326 407.122 180.214 404.176 180.009 400.412L177.829 360.539C177.607 356.473 180.844 353.054 184.916 353.054H261.298C265.278 353.054 268.479 356.325 268.394 360.304Z" fill="#3F3D56"/>
<path d="M149.985 294.948C159.677 294.948 167.534 287.091 167.534 277.399C167.534 267.707 159.677 259.85 149.985 259.85C140.293 259.85 132.436 267.707 132.436 277.399C132.436 287.091 140.293 294.948 149.985 294.948Z" fill="#FFB6B6"/>
<path d="M120.634 323.316L122.565 344.171L135.696 397.08L124.352 401.057L105.186 343.398L102.539 320.226L120.634 323.316Z" fill="#FFB6B6"/>
<path d="M115.411 360.304L114.557 400.176C114.474 404.036 111.321 407.122 107.46 407.122H34.1125C30.3431 407.122 27.2312 404.176 27.0254 400.412L24.8456 360.539C24.6234 356.473 27.8605 353.054 31.9327 353.054H108.315C112.294 353.054 115.496 356.325 115.411 360.304Z" fill="#3F3D56"/>
<path d="M137.787 407.391C145.441 407.391 151.646 404.647 151.646 401.261C151.646 397.876 145.441 395.131 137.787 395.131C130.132 395.131 123.927 397.876 123.927 401.261C123.927 404.647 130.132 407.391 137.787 407.391Z" fill="#FFB6B6"/>
<path d="M93.407 326.505L101.324 284.31C101.324 284.31 123.338 281.22 124.11 288.558C124.882 295.896 123.558 331.757 123.558 331.757L93.407 326.505V326.505Z" fill="#8CA32B"/>
<path d="M142.902 280.159C142.902 280.159 153.757 276.284 158.336 274.2C162.916 272.115 172.013 286.655 172.215 278.976C172.417 271.297 169.274 268.077 169.274 268.077C169.274 268.077 168.489 251.278 151.565 253.378C151.565 253.378 155.287 244.974 143.068 243.674C130.848 242.374 111.837 271.883 113.539 276.293C115.242 280.703 117.283 284.349 112.453 289.064C107.622 293.779 98.5774 320.39 105.459 327.551C112.341 334.712 112.792 337.82 108.077 342.275C103.362 346.729 92.2171 356.416 104.268 358.098C116.318 359.78 103.165 358.524 112.149 350.621C121.133 342.719 134.242 343.042 129.347 330.363C124.453 317.685 132.957 299.517 131.893 296.76C130.828 294.004 134.277 276.502 134.277 276.502C134.277 276.502 142.302 275.323 142.902 280.159V280.159Z" fill="#2F2E41"/>
<path d="M232.504 301.347C243.054 301.347 251.607 292.794 251.607 282.244C251.607 271.694 243.054 263.141 232.504 263.141C221.953 263.141 213.401 271.694 213.401 282.244C213.401 292.794 221.953 301.347 232.504 301.347Z" fill="#A0616A"/>
<path d="M234.028 256.561C233.476 256.884 232.735 256.396 232.558 255.781C232.381 255.166 232.587 254.513 232.792 253.906L233.823 250.854C234.554 248.688 235.329 246.448 236.913 244.8C239.302 242.312 243.1 241.68 246.518 242.138C250.908 242.727 255.24 245.104 257.281 249.035C259.322 252.966 258.453 258.451 254.765 260.904C260.022 266.929 261.854 273.644 261.565 281.634C261.275 289.625 252.567 296.979 246.889 302.609C245.62 301.84 244.468 298.237 245.165 296.928C245.862 295.62 244.863 294.103 245.727 292.898C246.59 291.692 247.313 293.612 246.44 292.413C245.889 291.657 248.039 289.917 247.22 289.464C243.259 287.274 241.941 282.336 239.453 278.555C236.453 273.995 231.316 270.906 225.881 270.394C222.887 270.111 219.724 270.623 217.27 272.361C214.816 274.099 213.227 277.205 213.796 280.159C212.322 278.662 211.588 276.469 211.865 274.387C212.142 272.304 213.423 270.379 215.237 269.319C214.134 265.673 215.079 261.478 217.638 258.656C220.198 255.834 230.581 256.314 234.317 257.057L234.028 256.561Z" fill="#2F2E41"/>
<path d="M234.609 270.504C239.558 271.039 243.131 275.326 246.149 279.285C247.888 281.567 249.71 284.087 249.666 286.956C249.622 289.856 247.683 292.344 246.756 295.093C245.241 299.586 246.717 304.932 250.324 308.01C246.76 308.686 242.908 306.015 242.293 302.44C241.577 298.279 244.731 294.263 244.358 290.058C244.029 286.353 241.109 283.501 238.627 280.731C236.144 277.96 233.813 274.284 234.955 270.744L234.609 270.504Z" fill="#2F2E41"/>
<path d="M295.272 397.103C290.37 399.891 287.835 404.681 289.61 407.801C291.385 410.92 296.797 411.188 301.701 408.398C303.675 407.31 305.36 405.766 306.615 403.894L327.236 391.817L321.363 382.261L301.657 395.18C299.406 395.302 297.216 395.962 295.272 397.103Z" fill="#FFB6B6"/>
<path d="M365.094 308.545C364.478 308.301 359.071 306.253 354.134 308.957C348.464 312.063 347.588 319.152 347.28 321.639C346.571 327.383 348.661 328.67 349.103 334.485C349.928 345.365 352.106 332.953 348.629 337.919C347.425 339.638 335.134 366.276 328.355 371.494C315.171 381.642 306.799 388.788 306.799 388.788L316.356 399.17C316.356 399.17 331.459 395.146 344.808 386.479C358.501 377.587 365.348 373.142 370.644 364.445C371.101 363.696 382.015 345.162 376.153 324.667C374.816 319.992 372.367 311.427 365.094 308.545Z" fill="#8CA32B"/>
<path d="M414.448 360.304L413.593 400.176C413.511 404.036 410.358 407.122 406.497 407.122H333.149C329.38 407.122 326.268 404.176 326.062 400.412L323.882 360.539C323.66 356.473 326.897 353.054 330.969 353.054H407.352C411.331 353.054 414.533 356.325 414.448 360.304Z" fill="#3F3D56"/>
</g>
<path d="M222.07 149.469H200.737C200.171 149.469 199.629 149.251 199.229 148.864C198.829 148.476 198.604 147.951 198.604 147.403C198.604 146.855 198.829 146.33 199.229 145.942C199.629 145.555 200.171 145.337 200.737 145.337H222.07C222.636 145.337 223.179 145.555 223.579 145.942C223.979 146.33 224.203 146.855 224.203 147.403C224.203 147.951 223.979 148.476 223.579 148.864C223.179 149.251 222.636 149.469 222.07 149.469Z" fill="#FEFAF1"/>
<path d="M279.669 165.997H258.336C258.056 165.997 257.779 165.943 257.52 165.839C257.261 165.735 257.026 165.583 256.828 165.391C256.63 165.2 256.473 164.972 256.365 164.721C256.258 164.471 256.203 164.202 256.203 163.931C256.203 163.659 256.258 163.391 256.365 163.14C256.473 162.889 256.63 162.662 256.828 162.47C257.026 162.278 257.261 162.126 257.52 162.022C257.779 161.918 258.056 161.865 258.336 161.865H279.669C279.949 161.865 280.227 161.918 280.486 162.022C280.744 162.126 280.98 162.278 281.178 162.47C281.376 162.662 281.533 162.889 281.64 163.14C281.747 163.391 281.803 163.659 281.803 163.931C281.803 164.202 281.747 164.471 281.64 164.721C281.533 164.972 281.376 165.2 281.178 165.391C280.98 165.583 280.744 165.735 280.486 165.839C280.227 165.943 279.949 165.997 279.669 165.997Z" fill="#FEFAF1"/>
<path d="M114.191 166.161H92.8578C92.5777 166.161 92.3002 166.107 92.0414 166.004C91.7826 165.9 91.5475 165.748 91.3494 165.556C91.1513 165.364 90.9942 165.136 90.8869 164.885C90.7797 164.635 90.7245 164.366 90.7245 164.095C90.7245 163.824 90.7797 163.555 90.8869 163.304C90.9942 163.054 91.1513 162.826 91.3494 162.634C91.5475 162.442 91.7826 162.29 92.0414 162.186C92.3002 162.082 92.5777 162.029 92.8578 162.029H114.191C114.471 162.029 114.748 162.082 115.007 162.186C115.266 162.29 115.501 162.442 115.699 162.634C115.897 162.826 116.054 163.054 116.162 163.304C116.269 163.555 116.324 163.824 116.324 164.095C116.324 164.366 116.269 164.635 116.162 164.885C116.054 165.136 115.897 165.364 115.699 165.556C115.501 165.748 115.266 165.9 115.007 166.004C114.748 166.107 114.471 166.161 114.191 166.161Z" fill="#FEFAF1"/>
<path d="M241.388 165.997H200.737C200.171 165.997 199.629 165.779 199.229 165.391C198.829 165.004 198.604 164.479 198.604 163.931C198.604 163.383 198.829 162.857 199.229 162.47C199.629 162.082 200.171 161.865 200.737 161.865H241.388C241.953 161.865 242.496 162.082 242.896 162.47C243.296 162.857 243.521 163.383 243.521 163.931C243.521 164.479 243.296 165.004 242.896 165.391C242.496 165.779 241.953 165.997 241.388 165.997Z" fill="#FEFAF1"/>
<path d="M175.253 166.161H134.602C134.036 166.161 133.494 165.943 133.094 165.556C132.694 165.168 132.469 164.643 132.469 164.095C132.469 163.547 132.694 163.021 133.094 162.634C133.494 162.247 134.036 162.029 134.602 162.029H175.253C175.818 162.029 176.361 162.247 176.761 162.634C177.161 163.021 177.386 163.547 177.386 164.095C177.386 164.643 177.161 165.168 176.761 165.556C176.361 165.943 175.818 166.161 175.253 166.161Z" fill="#FEFAF1"/>
<path d="M79.2401 166.161H38.5898C38.024 166.161 37.4814 165.943 37.0813 165.556C36.6813 165.168 36.4565 164.643 36.4565 164.095C36.4565 163.547 36.6813 163.021 37.0813 162.634C37.4814 162.247 38.024 162.029 38.5898 162.029H79.2401C79.8059 162.029 80.3484 162.247 80.7485 162.634C81.1486 163.021 81.3734 163.547 81.3734 164.095C81.3734 164.643 81.1486 165.168 80.7485 165.556C80.3484 165.943 79.8059 166.161 79.2401 166.161Z" fill="#FEFAF1"/>
<path d="M96.4135 118.172H55.7633C55.4827 118.173 55.2047 118.12 54.9452 118.016C54.6858 117.913 54.4499 117.761 54.2513 117.569C54.0526 117.377 53.8949 117.149 53.7874 116.898C53.6798 116.647 53.6245 116.378 53.6245 116.106C53.6245 115.834 53.6798 115.565 53.7874 115.314C53.8949 115.063 54.0526 114.835 54.2513 114.643C54.4499 114.451 54.6858 114.299 54.9452 114.196C55.2047 114.092 55.4827 114.039 55.7633 114.04H96.4135C96.9793 114.04 97.5219 114.258 97.922 114.645C98.3221 115.033 98.5469 115.558 98.5469 116.106C98.5469 116.654 98.3221 117.179 97.922 117.567C97.5219 117.954 96.9793 118.172 96.4135 118.172Z" fill="#FEFAF1"/>
<path d="M99.7557 130.242C99.3575 130.242 98.9692 130.122 98.645 129.898C98.3209 129.674 98.0771 129.357 97.9478 128.992C97.8185 128.628 97.8102 128.233 97.924 127.863C98.0377 127.494 98.2678 127.168 98.5822 126.931L108.991 119.096C109.409 118.781 109.755 118.385 110.008 117.934C110.26 117.483 110.412 116.986 110.456 116.475C110.499 115.963 110.433 115.449 110.26 114.964C110.088 114.479 109.813 114.034 109.453 113.657L100.715 104.495C100.544 104.317 100.412 104.108 100.325 103.88C100.239 103.652 100.199 103.409 100.209 103.167C100.219 102.924 100.278 102.685 100.383 102.465C100.488 102.244 100.637 102.046 100.821 101.881C101.005 101.716 101.221 101.588 101.457 101.504C101.692 101.42 101.942 101.381 102.193 101.391C102.444 101.4 102.69 101.458 102.918 101.56C103.145 101.661 103.35 101.805 103.521 101.984L116.498 115.588C116.678 115.777 116.815 115.999 116.901 116.241C116.987 116.483 117.021 116.74 116.999 116.996C116.977 117.251 116.901 117.499 116.775 117.725C116.649 117.95 116.476 118.148 116.268 118.305L100.927 129.853C100.593 130.105 100.18 130.242 99.7557 130.242Z" fill="#FEFAF1"/>
<path d="M53.7062 130.242C54.1044 130.242 54.4927 130.122 54.8169 129.898C55.141 129.674 55.3848 129.357 55.5141 128.992C55.6434 128.628 55.6518 128.233 55.538 127.863C55.4243 127.494 55.1941 127.168 54.8797 126.931L44.4709 119.096C44.0526 118.781 43.7065 118.385 43.4543 117.934C43.2021 117.483 43.0495 116.986 43.006 116.475C42.9625 115.963 43.0292 115.449 43.2018 114.964C43.3743 114.479 43.649 114.034 44.0084 113.657L52.7472 104.495C52.9175 104.317 53.0498 104.108 53.1366 103.88C53.2234 103.652 53.263 103.409 53.2532 103.167C53.2433 102.924 53.1841 102.685 53.0791 102.465C52.974 102.244 52.8251 102.046 52.6409 101.881C52.4566 101.716 52.2407 101.588 52.0053 101.504C51.7699 101.42 51.5197 101.381 51.269 101.391C51.0183 101.4 50.7721 101.458 50.5443 101.56C50.3164 101.661 50.1116 101.805 49.9413 101.984L36.9639 115.588C36.7844 115.777 36.6471 115.999 36.5609 116.241C36.4746 116.483 36.4413 116.74 36.463 116.996C36.4846 117.251 36.5608 117.499 36.6867 117.725C36.8126 117.95 36.9855 118.148 37.1943 118.305L52.5345 129.853C52.8694 130.105 53.2818 130.242 53.7062 130.242Z" fill="#FEFAF1"/>
<path d="M117.428 200.874H76.7779C76.2121 200.874 75.6695 200.657 75.2695 200.269C74.8694 199.882 74.6446 199.356 74.6446 198.809C74.6446 198.261 74.8694 197.735 75.2695 197.348C75.6695 196.96 76.2121 196.743 76.7779 196.743H117.428C117.994 196.743 118.537 196.96 118.937 197.348C119.337 197.735 119.561 198.261 119.561 198.809C119.561 199.356 119.337 199.882 118.937 200.269C118.537 200.657 117.994 200.874 117.428 200.874Z" fill="#FEFAF1"/>
<path d="M124.591 211.094C124.193 211.095 123.805 210.974 123.48 210.75C123.156 210.526 122.913 210.21 122.783 209.845C122.654 209.48 122.646 209.085 122.759 208.716C122.873 208.346 123.103 208.02 123.418 207.784L133.826 199.948C134.245 199.633 134.591 199.238 134.843 198.787C135.095 198.336 135.248 197.839 135.291 197.327C135.335 196.816 135.268 196.302 135.096 195.816C134.923 195.331 134.648 194.886 134.289 194.51L125.55 185.348C125.38 185.169 125.248 184.96 125.161 184.732C125.074 184.504 125.034 184.262 125.044 184.019C125.054 183.777 125.113 183.538 125.218 183.317C125.323 183.097 125.472 182.898 125.657 182.733C125.841 182.569 126.057 182.44 126.292 182.356C126.527 182.272 126.778 182.234 127.028 182.243C127.279 182.253 127.525 182.31 127.753 182.412C127.981 182.514 128.186 182.658 128.356 182.836L141.333 196.441C141.513 196.629 141.65 196.851 141.736 197.094C141.823 197.336 141.856 197.593 141.834 197.848C141.813 198.104 141.736 198.352 141.611 198.577C141.485 198.803 141.312 199 141.103 199.157L125.763 210.705C125.428 210.958 125.016 211.095 124.591 211.094Z" fill="#FEFAF1"/>
<path d="M53.7062 211.094C54.1044 211.095 54.4927 210.974 54.8169 210.75C55.141 210.526 55.3848 210.21 55.5141 209.845C55.6434 209.48 55.6518 209.085 55.538 208.716C55.4243 208.346 55.1941 208.02 54.8797 207.784L44.4709 199.948C44.0526 199.633 43.7065 199.238 43.4543 198.787C43.2021 198.336 43.0495 197.839 43.006 197.327C42.9625 196.816 43.0292 196.302 43.2018 195.816C43.3743 195.331 43.649 194.886 44.0084 194.51L52.7472 185.348C53.0911 184.987 53.2731 184.51 53.2532 184.019C53.2332 183.529 53.0129 183.066 52.6409 182.733C52.2688 182.4 51.7753 182.224 51.269 182.244C50.7628 182.263 50.2852 182.476 49.9413 182.836L36.9639 196.441C36.7844 196.629 36.6471 196.851 36.5609 197.094C36.4746 197.336 36.4413 197.593 36.463 197.848C36.4846 198.104 36.5608 198.352 36.6867 198.577C36.8126 198.803 36.9855 199 37.1943 199.157L52.5345 210.705C52.8694 210.958 53.2818 211.095 53.7062 211.094Z" fill="#FEFAF1"/>
<path d="M57.3341 205.306L65.8789 186.376C66.1072 185.877 66.5306 185.485 67.0563 185.287C67.582 185.089 68.1674 185.101 68.6843 185.32C69.2012 185.538 69.6075 185.947 69.8144 186.455C70.0213 186.963 70.0119 187.53 69.7883 188.031L61.2434 206.961C61.1321 207.211 60.9709 207.437 60.7691 207.626C60.5672 207.816 60.3288 207.965 60.0674 208.064C59.8059 208.164 59.5267 208.213 59.2458 208.208C58.9648 208.203 58.6876 208.145 58.4302 208.036C58.1727 207.927 57.94 207.769 57.7454 207.573C57.5508 207.377 57.3983 207.145 57.2964 206.891C57.1946 206.638 57.1455 206.367 57.1519 206.095C57.1584 205.823 57.2203 205.555 57.3341 205.306Z" fill="#FEFAF1"/>
<path d="M139.237 149.182H117.904C117.339 149.182 116.796 148.964 116.396 148.577C115.996 148.189 115.771 147.664 115.771 147.116C115.771 146.568 115.996 146.042 116.396 145.655C116.796 145.268 117.339 145.05 117.904 145.05H139.237C139.803 145.05 140.346 145.268 140.746 145.655C141.146 146.042 141.371 146.568 141.371 147.116C141.371 147.664 141.146 148.189 140.746 148.577C140.346 148.964 139.803 149.182 139.237 149.182Z" fill="#FEFAF1"/>
<path d="M95.8231 149.182H74.4901C73.9243 149.182 73.3817 148.964 72.9817 148.577C72.5816 148.189 72.3569 147.664 72.3569 147.116C72.3569 146.568 72.5816 146.042 72.9817 145.655C73.3817 145.268 73.9243 145.05 74.4901 145.05H95.8231C96.3889 145.05 96.9315 145.268 97.3315 145.655C97.7316 146.042 97.9563 146.568 97.9563 147.116C97.9563 147.664 97.7316 148.189 97.3315 148.577C96.9315 148.964 96.3889 149.182 95.8231 149.182Z" fill="#FEFAF1"/>
<path d="M59.9227 149.182H38.5898C38.024 149.182 37.4814 148.964 37.0813 148.577C36.6813 148.189 36.4565 147.664 36.4565 147.116C36.4565 146.568 36.6813 146.042 37.0813 145.655C37.4814 145.268 38.024 145.05 38.5898 145.05H59.9227C60.4885 145.05 61.0311 145.268 61.4312 145.655C61.8313 146.042 62.056 146.568 62.056 147.116C62.056 147.664 61.8313 148.189 61.4312 148.577C61.0311 148.964 60.4885 149.182 59.9227 149.182Z" fill="#FEFAF1"/>
<path d="M179.312 149.182H157.979C157.413 149.182 156.871 148.964 156.471 148.577C156.071 148.189 155.846 147.664 155.846 147.116C155.846 146.568 156.071 146.042 156.471 145.655C156.871 145.268 157.413 145.05 157.979 145.05H179.312C179.878 145.05 180.421 145.268 180.821 145.655C181.221 146.042 181.445 146.568 181.445 147.116C181.445 147.664 181.221 148.189 180.821 148.577C180.421 148.964 179.878 149.182 179.312 149.182Z" fill="#FEFAF1"/>
</g>
<path d="M0.5 30C0.5 13.7076 13.7076 0.5 30 0.5H400C416.292 0.5 429.5 13.7076 429.5 30V429.5H0.5V30Z" stroke="#B4CB53"/>
<defs>
<clipPath id="clip0_373_214">
<path d="M0 30C0 13.4314 13.4315 0 30 0H400C416.569 0 430 13.4315 430 30V430H0V30Z" fill="white"/>
</clipPath>
<clipPath id="clip1_373_214">
<rect width="462.147" height="175.371" fill="white" transform="translate(-8 242)"/>
</clipPath>
</defs>
</svg>
